HIERARCHY
ROOT Bip001_Pelvis
{
  OFFSET 34.4345 95.6767 -26.8758
  CHANNELS 6 Xposition Yposition Zposition Zrotation Xrotation Yrotation
  JOINT Bip001_Spine
  {
    OFFSET 1.4188e-005 10.2191 -0.0116013
    CHANNELS 3 Zrotation Xrotation Yrotation
    JOINT Bip001_L_Thigh
    {
      OFFSET 11.0458 -10.2192 0.0116197
      CHANNELS 3 Zrotation Xrotation Yrotation
      JOINT Bip001_L_Calf
      {
        OFFSET -0.707118 -44.0221 0.360014
        CHANNELS 3 Zrotation Xrotation Yrotation
        JOINT Bip001_L_Foot
        {
          OFFSET -0.651902 -40.5938 -3.56146
          CHANNELS 3 Zrotation Xrotation Yrotation
          JOINT Bip001_L_Toe0
          {
            OFFSET 0.0530839 -10.2181 13.1504
            CHANNELS 3 Zrotation Xrotation Yrotation
            End Site
            {
              OFFSET -1.02532e-005 0 7.55606
            }
          }
        }
      }
    }
    JOINT Bip001_R_Thigh
    {
      OFFSET -11.0458 -10.2191 0.0115893
      CHANNELS 3 Zrotation Xrotation Yrotation
      JOINT Bip001_R_Calf
      {
        OFFSET 0.706994 -44.0221 0.35984
        CHANNELS 3 Zrotation Xrotation Yrotation
        JOINT Bip001_R_Foot
        {
          OFFSET 0.651786 -40.5938 -3.5613
          CHANNELS 3 Zrotation Xrotation Yrotation
          JOINT Bip001_R_Toe0
          {
            OFFSET -0.0531479 -10.2181 13.1504
            CHANNELS 3 Zrotation Xrotation Yrotation
            End Site
            {
              OFFSET -1.02894e-005 0 7.55606
            }
          }
        }
      }
    }
    JOINT Bip001_Spine1
    {
      OFFSET 1.87041e-005 14.5736 1.08638
      CHANNELS 3 Zrotation Xrotation Yrotation
      JOINT Bip001_Spine2
      {
        OFFSET 2.24614e-005 14.5058 -1.69078
        CHANNELS 3 Zrotation Xrotation Yrotation
        JOINT Bip001_Neck
        {
          OFFSET 2.20278e-005 15.3945 -0.489414
          CHANNELS 3 Zrotation Xrotation Yrotation
          JOINT Bip001_L_Clavicle
          {
            OFFSET 6.06036 -0.000579998 0.00836775
            CHANNELS 3 Zrotation Xrotation Yrotation
            JOINT Bip001_L_UpperArm
            {
              OFFSET 11.5509 -0.0600302 0.00193952
              CHANNELS 3 Zrotation Xrotation Yrotation
              JOINT Bip001_L_Forearm
              {
                OFFSET 25.9523 0.0806089 -2.15551
                CHANNELS 3 Zrotation Xrotation Yrotation
                JOINT Bip001_L_Hand
                {
                  OFFSET 32.2475 0.153767 1.63968
                  CHANNELS 3 Zrotation Xrotation Yrotation
                  JOINT Bip001_L_Finger0
                  {
                    OFFSET 6.04639 -2.20976 5.90322
                    CHANNELS 3 Zrotation Xrotation Yrotation
                    End Site
                    {
                      OFFSET 4.22375 -1.43895 0.606485
                    }
                  }
                  JOINT Bip001_L_Finger1
                  {
                    OFFSET 11.0826 -0.704819 -0.198153
                    CHANNELS 3 Zrotation Xrotation Yrotation
                    End Site
                    {
                      OFFSET 6.20027 -0.397518 -0.0787166
                    }
                  }
                }
              }
            }
          }
          JOINT Bip001_R_Clavicle
          {
            OFFSET -6.06037 -0.000563197 0.00835105
            CHANNELS 3 Zrotation Xrotation Yrotation
            JOINT Bip001_R_UpperArm
            {
              OFFSET -11.5509 -0.0599978 0.00190698
              CHANNELS 3 Zrotation Xrotation Yrotation
              JOINT Bip001_R_Forearm
              {
                OFFSET -25.9523 0.0806822 -2.15589
                CHANNELS 3 Zrotation Xrotation Yrotation
                JOINT Bip001_R_Hand
                {
                  OFFSET -32.2475 0.153859 1.63989
                  CHANNELS 3 Zrotation Xrotation Yrotation
                  JOINT Bip001_R_Finger0
                  {
                    OFFSET -6.04641 -2.20976 5.90317
                    CHANNELS 3 Zrotation Xrotation Yrotation
                    End Site
                    {
                      OFFSET -4.22376 -1.43895 0.60647
                    }
                  }
                  JOINT Bip001_R_Finger1
                  {
                    OFFSET -11.0826 -0.704794 -0.198182
                    CHANNELS 3 Zrotation Xrotation Yrotation
                    End Site
                    {
                      OFFSET -6.20028 -0.397504 -0.0787333
                    }
                  }
                }
              }
            }
          }
          JOINT Bip001_Head
          {
            OFFSET 1.09673e-005 11.2744 2.05948
            CHANNELS 3 Zrotation Xrotation Yrotation
            End Site
            {
              OFFSET 2.89576e-005 20.8808 -2.77728e-005
            }
          }
        }
      }
    }
  }
}
MOTION
Frames:	8
Frame Time:	0.04
32.1639 95.7907 -30.8472 -0.64128 -1.52584 -1.42186 -0.0600906 2.4306 -0.434933 7.16872 -1.3551 12.2563 0.227389 7.58554 -1.07981 2.09348 -2.52667 -0.0291541 1.75317 -6.03651 -0.805946 -3.43676 -2.61049 -1.7163 0.182204 9.14185 -0.205563 -5.25575 -7.69553 0.714124 2.3871 -8.10206 2.56247 -0.128834 4.85554 -0.874131 -0.128834 4.85554 -0.874132 5.59417 -7.21882 -1.17818 -28.1272 8.51802 -1.52072 -55.7136 38.9726 2.90103 12.2804 -9.11442 -24.199 9.46747 1.21424 -2.3745 0 0 -3.18055e-015 -0 -3.18056e-015 -0 20.1706 14.7198 18.5466 58.9866 28.5702 -6.6058 -24.759 13.7914 17.2243 2.00163 -6.21469 6.26839 -4.77083e-015 3.18055e-015 -0 -1.59028e-015 3.18056e-015 -0 -2.41525 -3.29217 0.647806 
32.1425 95.7945 -30.855 -0.694422 -1.54071 -1.38629 -0.0607616 2.44027 -0.417453 7.25351 -1.39451 12.1502 0.211383 7.64496 -1.00315 1.95462 -2.58951 -0.0291479 1.74286 -6.01891 -0.823524 -3.35731 -2.57072 -1.76637 0.157721 9.07067 -0.190444 -5.25934 -7.6467 0.691682 2.39074 -8.11785 2.58325 -0.115801 4.88097 -0.83263 -0.11577 4.88097 -0.832632 5.62308 -7.13065 -1.21544 -28.1454 8.43468 -1.55992 -55.8123 39.0144 3.02718 12.3163 -9.01871 -24.2456 9.45912 1.12678 -2.47887 3.18055e-015 3.18055e-015 -0 -3.18055e-015 0 -0 20.0271 14.6519 18.686 59.1287 28.7021 -6.67427 -24.9168 13.5614 17.2275 2.12729 -6.18222 6.30905 1.59028e-015 -3.18055e-015 -1.59028e-015 0 0 -1.59028e-015 -2.48437 -3.35569 0.633222 
32.1219 95.796 -30.8477 -0.735339 -1.58369 -1.32673 -0.0613873 2.45382 -0.400536 7.33325 -1.41268 12.3147 0.231173 7.73626 -1.19364 1.76383 -2.71713 -0.0289858 1.71912 -5.95104 -0.830941 -3.29353 -2.48484 -1.954 0.113774 8.99401 -0.157643 -5.23418 -7.62568 0.772796 2.38848 -8.09633 2.57401 -0.107558 4.90801 -0.80272 -0.108991 4.90802 -0.802655 5.605 -7.05624 -1.21781 -28.247 8.35454 -1.52734 -55.6492 39.0709 3.15737 12.253 -8.96161 -24.3724 9.3274 1.13935 -2.42166 -3.18055e-015 0 -3.18055e-015 -3.18055e-015 0 -0 19.9695 14.5712 18.73 59.2774 28.8145 -6.77626 -25.1442 13.4377 17.256 2.16478 -6.14448 6.34977 1.59028e-015 -6.36111e-015 -0 1.59028e-015 -9.54167e-015 -3.18055e-015 -2.41633 -3.24164 0.624162 
32.1027 95.7963 -30.8404 -0.762995 -1.6164 -1.2456 -0.0615586 2.46104 -0.395371 7.3874 -1.4342 12.2084 0.213411 7.82308 -1.09215 1.84983 -2.77691 -0.0286586 1.81935 -5.87701 -0.863598 -3.24413 -2.40009 -1.96788 0.107176 8.91261 -0.177961 -5.23572 -7.61307 0.762371 2.38102 -8.08267 2.52541 -0.0960644 4.92185 -0.8028 -0.0977724 4.92186 -0.802875 5.54847 -6.99207 -1.20054 -28.1756 8.29266 -1.51541 -55.73 39.0774 3.26761 12.1991 -8.96719 -24.3163 9.47829 1.18031 -2.53675 3.18055e-015 -6.36111e-015 -0 -0 -9.54167e-015 -0 19.9866 14.5299 18.8378 59.3744 28.9167 -6.9435 -25.3548 13.4643 17.2619 2.05552 -6.21783 6.24653 -1.59028e-015 0 1.59028e-015 0 0 -0 -2.38501 -3.12667 0.623663 
32.0862 95.7964 -30.8351 -0.790333 -1.63652 -1.16855 -0.0616482 2.46709 -0.392323 7.41502 -1.40652 12.2524 0.228648 7.74323 -1.33212 1.87858 -2.62189 -0.0282316 1.76953 -6.03806 -0.849451 -3.19921 -2.34209 -2.12987 0.0817325 8.87018 -0.131455 -5.22578 -7.59895 0.783169 2.38481 -8.0891 2.55026 -0.0944867 4.9287 -0.782773 -0.0982543 4.92871 -0.782784 5.39719 -7.0288 -1.30249 -28.029 8.30154 -1.46827 -55.7629 38.9848 3.32148 12.1926 -8.96329 -24.1964 9.40964 1.26925 -2.44023 3.18055e-015 -6.36111e-015 6.36111e-015 3.18055e-015 -9.54167e-015 6.36111e-015 20.1182 14.6101 18.948 59.4218 29.094 -7.11903 -25.4526 13.1824 17.1788 2.0764 -6.26651 6.21723 3.18055e-015 -3.18055e-015 -0 3.18055e-015 -3.18056e-015 -0 -2.26062 -2.87545 0.463864 
32.0766 95.7971 -30.8258 -0.801778 -1.67137 -1.06649 -0.0616382 2.47655 -0.391055 7.44662 -1.41448 12.2526 0.226213 7.77848 -1.4209 1.83795 -2.683 -0.0277838 1.75581 -5.98177 -0.847427 -3.17557 -2.28098 -2.3028 0.0514333 8.84426 -0.140551 -5.2081 -7.61371 0.871919 2.38378 -8.08439 2.54444 -0.0946452 4.95342 -0.780507 -0.0977415 4.95342 -0.780573 5.21295 -7.03896 -1.30201 -27.7832 8.34652 -1.56655 -55.8014 38.8527 3.36449 12.3112 -8.74539 -24.0122 9.42785 1.12385 -2.53157 -3.53112e-031 6.36111e-015 3.18055e-015 -6.36111e-015 3.18056e-015 3.18055e-015 20.2823 14.6203 18.9582 59.4881 29.3574 -7.21249 -25.5234 13.0103 16.9849 2.11247 -6.2247 6.16828 -8.82781e-032 3.18055e-015 1.59028e-015 1.59028e-015 0 1.59028e-015 -2.02161 -2.71029 0.380464 
32.0618 95.795 -30.8227 -0.813875 -1.73162 -0.99125 -0.0616649 2.49728 -0.387199 7.45909 -1.34802 10.7468 0.0330459 7.66109 0.0449482 2.00348 -2.54578 -0.0273747 1.84981 -6.0313 -0.897515 -3.13569 -2.23022 -2.26924 0.0362836 8.85129 -0.136261 -5.25654 -7.60512 0.761217 2.38728 -8.10919 2.56148 -0.0985194 4.99492 -0.774319 -0.100607 4.99492 -0.774361 5.4844 -6.64384 -1.2469 -27.9705 8.02631 -1.86707 -55.7457 38.6936 3.34301 12.357 -8.61405 -23.8837 9.38204 1.09654 -2.40068 -3.18055e-015 0 -0 -3.18055e-015 -3.18056e-015 -0 19.9249 14.2321 19.1105 59.5727 29.5152 -7.2693 -25.611 12.9762 16.8123 2.14372 -6.29153 6.13565 -4.77083e-015 0 1.59028e-015 -7.95139e-015 0 -0 -2.41335 -3.31135 0.578596 
32.0575 95.79 -30.8214 -0.822012 -1.77506 -0.91111 -0.0619686 2.50461 -0.379117 7.48858 -1.34869 10.5396 0.000273059 7.70136 0.196973 1.95248 -2.6034 -0.0270818 1.87049 -6.01595 -0.925112 -3.11734 -2.19083 -2.1485 0.0613382 8.86614 -0.15537 -5.31236 -7.5898 0.593151 2.38899 -8.12183 2.56961 -0.102539 5.01442 -0.75654 -0.1052 5.01442 -0.756538 4.9184 -7.15476 -1.28486 -27.4744 8.52873 -1.73182 -55.5377 38.6379 3.3283 12.2423 -8.67289 -23.7386 9.37705 1.12205 -2.44254 -6.36111e-015 1.59028e-014 9.54166e-015 -3.18055e-015 9.54167e-015 6.36111e-015 20.4678 14.7097 18.9316 59.6665 29.453 -7.3673 -25.6736 13.0305 16.7033 2.08214 -6.28855 6.13295 9.54166e-015 -6.36111e-015 1.59028e-015 4.77083e-015 -3.18056e-015 2.38542e-015 -1.74394 -2.60606 0.266815 
